<svg xmlns="http://www.w3.org/2000/svg" version="1.1" xmlns:xlink="http://www.w3.org/1999/xlink" xmlns:svgjs="http://svgjs.dev/svgjs" width="1500" height="1500" viewBox="0 0 1500 1500"><rect width="1500" height="1500" fill="#ffffff"></rect><g transform="matrix(0.6666666666666666,0,0,0.6666666666666666,249.39393939393938,697.9817197646653)"><svg viewBox="0 0 396 41" data-background-color="#ffffff" preserveAspectRatio="xMidYMid meet" height="155" width="1500" xmlns="http://www.w3.org/2000/svg" xmlns:xlink="http://www.w3.org/1999/xlink"><g id="tight-bounds" transform="matrix(1,0,0,1,0.2400000000000091,0.13951119014896562)"><svg viewBox="0 0 395.52 40.720977619702055" height="40.720977619702055" width="395.52"><g><svg viewBox="0 0 523.990189653962 53.947696161616165" height="40.720977619702055" width="395.52"><g transform="matrix(1,0,0,1,0,7.455868282828288)"><svg viewBox="0 0 395.52 39.03595959595959" height="39.03595959595959" width="395.52"><g id="textblocktransform"><svg viewBox="0 0 395.52 39.03595959595959" height="39.03595959595959" width="395.52" id="textblock"><g><svg viewBox="0 0 395.52 39.03595959595959" height="39.03595959595959" width="395.52"><g transform="matrix(1,0,0,1,0,0)"><svg width="395.52" viewBox="1.8 -35 476.86999999999995 46.9" height="39.03595959595959" data-palette-color="#919591"><g class="wordmark-text-0" data-fill-palette-color="primary" id="text-0"><path d="M29.1-11.9L33.95-11.9 33.95 0 1.8 0 1.8-4.15 8.25-4.15 8.25-30.15 1.8-30.15 1.8-34.3 19.8-34.3 19.8-30.15 13.4-30.15 13.4-4.15 29.1-4.15 29.1-11.9ZM64.55-4.15L65.55-0.6Q63.9 0.4 61.7 0.4L61.7 0.4Q59.85 0.4 58.57-0.68 57.3-1.75 56.8-3.75L56.8-3.75Q51.8 0.7 46.9 0.7L46.9 0.7Q43.45 0.7 41.05-1.25 38.65-3.2 38.65-6.7L38.65-6.7Q38.65-9.1 40-10.88 41.35-12.65 43.62-13.58 45.9-14.5 48.55-14.5L48.55-14.5Q50.8-14.5 52.7-14.08 54.6-13.65 56.6-12.85L56.6-12.85 56.6-15.05Q56.6-17.6 54.9-18.8 53.2-20 50.45-20L50.45-20Q46.55-20 41.05-17.85L41.05-17.85 40.05-21.65Q45.95-24.15 51.05-24.15L51.05-24.15Q55.9-24.15 58.57-21.78 61.25-19.4 61.25-14.85L61.25-14.85 61.25-6.2Q61.25-3.75 63-3.75L63-3.75Q63.75-3.75 64.55-4.15L64.55-4.15ZM43.5-6.95Q43.5-5.25 44.85-4.33 46.2-3.4 48.15-3.4L48.15-3.4Q49.85-3.4 52.05-4.3 54.25-5.2 56.6-6.95L56.6-6.95 56.6-9.6Q53.2-10.8 49.4-10.9L49.4-10.9Q46.95-10.9 45.22-9.88 43.5-8.85 43.5-6.95L43.5-6.95ZM80.59-13.9Q85.2-12.65 87.67-10.78 90.15-8.9 90.15-5.75L90.15-5.75Q90.15-2.85 87.7-1.07 85.25 0.7 81.65 0.7L81.65 0.7Q79.15 0.7 76.72-0.18 74.3-1.05 72.4-2.6L72.4-2.6 72.4 0.05 68.59 0.05 68.59-7.6 70.75-7.8Q72.65-5.65 75.52-4.13 78.4-2.6 81.15-2.6L81.15-2.6Q83-2.6 84.05-3.3 85.09-4 85.09-5.3L85.09-5.3Q85.09-6.8 83.45-7.78 81.8-8.75 78.05-9.75L78.05-9.75Q73.55-10.95 71.12-12.78 68.7-14.6 68.7-17.55L68.7-17.55Q68.7-19.4 69.72-20.93 70.75-22.45 72.62-23.33 74.5-24.2 76.95-24.2L76.95-24.2Q79.34-24.2 81.52-23.4 83.7-22.6 85.3-21.15L85.3-21.15 85.3-23.55 89.05-23.55 89.05-15.95 86.84-15.7Q85.45-18.05 83.02-19.48 80.59-20.9 78.2-20.9L78.2-20.9Q76.25-20.9 75-20.13 73.75-19.35 73.75-18.1L73.75-18.1Q73.75-16.75 75.4-15.83 77.05-14.9 80.59-13.9L80.59-13.9ZM124.14-3.95L128.84-3.95 128.84 0 114.94 0 114.94-3.95 119.29-3.95 119.29-13.7Q119.29-16.6 117.92-18.2 116.54-19.8 113.94-19.8L113.94-19.8Q109.89-19.8 104.94-14.3L104.94-14.3 104.94-3.95 109.24-3.95 109.24 0 94.74 0 94.74-3.95 100.04-3.95 100.04-30.35 94.74-30.35 94.74-34.3 104.94-34.3 104.94-18.15Q107.69-21.15 110.27-22.65 112.84-24.15 115.89-24.15L115.89-24.15Q119.94-24.15 122.04-21.58 124.14-19 124.14-13.85L124.14-13.85 124.14-3.95ZM153.44-6.7L155.54-3.5Q150.74 0.7 144.59 0.7L144.59 0.7Q141.24 0.7 138.24-0.7 135.24-2.1 133.39-4.8 131.54-7.5 131.54-11.2L131.54-11.2Q131.54-15.15 133.44-18.1 135.34-21.05 138.39-22.63 141.44-24.2 144.79-24.2L144.79-24.2Q147.74-24.2 150.06-23.25 152.39-22.3 153.72-20.6 155.04-18.9 155.04-16.7L155.04-16.7Q155.04-13.4 152.22-11.58 149.39-9.75 145.44-9.75L145.44-9.75Q142.89-9.75 140.69-10.28 138.49-10.8 136.24-11.8L136.24-11.8 136.24-11.35Q136.24-9 137.37-7.2 138.49-5.4 140.39-4.45 142.29-3.5 144.54-3.5L144.54-3.5Q149.64-3.5 153.44-6.7L153.44-6.7ZM145.14-20.3Q142.44-20.3 140.12-18.75 137.79-17.2 136.79-14.55L136.79-14.55Q140.59-13.2 144.39-13.2L144.39-13.2Q146.89-13.2 148.52-14.13 150.14-15.05 150.14-16.7L150.14-16.7Q150.14-18.3 148.74-19.3 147.34-20.3 145.14-20.3L145.14-20.3ZM171.79-13.9Q176.39-12.65 178.86-10.78 181.34-8.9 181.34-5.75L181.34-5.75Q181.34-2.85 178.89-1.07 176.44 0.7 172.84 0.7L172.84 0.7Q170.34 0.7 167.91-0.18 165.49-1.05 163.59-2.6L163.59-2.6 163.59 0.05 159.79 0.05 159.79-7.6 161.94-7.8Q163.84-5.65 166.71-4.13 169.59-2.6 172.34-2.6L172.34-2.6Q174.19-2.6 175.24-3.3 176.29-4 176.29-5.3L176.29-5.3Q176.29-6.8 174.64-7.78 172.99-8.75 169.24-9.75L169.24-9.75Q164.74-10.95 162.31-12.78 159.89-14.6 159.89-17.55L159.89-17.55Q159.89-19.4 160.91-20.93 161.94-22.45 163.81-23.33 165.69-24.2 168.14-24.2L168.14-24.2Q170.54-24.2 172.71-23.4 174.89-22.6 176.49-21.15L176.49-21.15 176.49-23.55 180.24-23.55 180.24-15.95 178.04-15.7Q176.64-18.05 174.21-19.48 171.79-20.9 169.39-20.9L169.39-20.9Q167.44-20.9 166.19-20.13 164.94-19.35 164.94-18.1L164.94-18.1Q164.94-16.75 166.59-15.83 168.24-14.9 171.79-13.9L171.79-13.9Z" fill="#000000" data-fill-palette-color="primary"></path><path d="M254.99-34.3L254.99-30.15 249.39-30.15 238.44 0.65 235.89 0.65 225.34-24.35 215.34 0.65 212.74 0.65 201.74-30.15 196.24-30.15 196.24-34.3 213.04-34.3 213.04-30.15 207.19-30.15 214.54-8.05 224.29-33.55 227.09-33.55 237.29-8 244.34-30.15 238.24-30.15 238.24-34.3 254.99-34.3ZM263.74-28.9Q262.14-28.9 261.04-29.75 259.93-30.6 259.93-31.9L259.93-31.9Q259.93-33.25 261.04-34.13 262.14-35 263.74-35L263.74-35Q265.43-35 266.54-34.13 267.64-33.25 267.64-31.9L267.64-31.9Q267.64-30.6 266.54-29.75 265.43-28.9 263.74-28.9L263.74-28.9ZM266.74-3.95L272.09-3.95 272.09 0 256.54 0 256.54-3.95 261.84-3.95 261.84-19.6 256.54-19.6 256.54-23.55 266.74-23.55 266.74-3.95ZM293.28-5.35L294.98-1.65Q293.13-0.55 291.36 0.05 289.58 0.65 287.28 0.65L287.28 0.65Q283.43 0.65 281.16-1.78 278.88-4.2 278.88-8.7L278.88-8.7 278.88-19.6 273.63-19.6 273.63-23.55 278.88-23.55 278.88-30.1 283.78-30.1 283.78-23.55 291.58-23.55 291.58-19.6 283.78-19.6 283.78-8.65Q283.78-6.1 284.93-4.9 286.08-3.7 288.03-3.7L288.03-3.7Q289.43-3.7 290.68-4.13 291.93-4.55 293.28-5.35L293.28-5.35ZM325.58-3.95L330.28-3.95 330.28 0 316.38 0 316.38-3.95 320.73-3.95 320.73-13.7Q320.73-16.6 319.36-18.2 317.98-19.8 315.38-19.8L315.38-19.8Q311.33-19.8 306.38-14.3L306.38-14.3 306.38-3.95 310.68-3.95 310.68 0 296.18 0 296.18-3.95 301.48-3.95 301.48-30.35 296.18-30.35 296.18-34.3 306.38-34.3 306.38-18.15Q309.13-21.15 311.71-22.65 314.28-24.15 317.33-24.15L317.33-24.15Q321.38-24.15 323.48-21.58 325.58-19 325.58-13.85L325.58-13.85 325.58-3.95Z" fill="#000000" data-fill-palette-color="secondary"></path><path d="M372.63-17.75Q380.28-15.95 380.28-9.35L380.28-9.35Q380.28-4.85 376.88-2.43 373.48 0 367.18 0L367.18 0 346.83 0 346.83-4.15 353.28-4.15 353.28-30.15 346.83-30.15 346.83-34.3 366.38-34.3Q371.83-34.3 374.8-31.85 377.78-29.4 377.78-25.4L377.78-25.4Q377.78-22.7 376.4-20.78 375.03-18.85 372.63-17.75L372.63-17.75ZM366.03-30.15L358.38-30.15 358.38-19.2 365.13-19.2Q368.63-19.2 370.6-20.58 372.58-21.95 372.58-24.8L372.58-24.8Q372.58-27.55 370.73-28.85 368.88-30.15 366.03-30.15L366.03-30.15ZM366.68-4.15Q375.08-4.15 375.08-9.75L375.08-9.75Q375.08-12.65 372.85-14 370.63-15.35 366.63-15.4L366.63-15.4 358.38-15.4 358.38-4.15 366.68-4.15ZM405.73-24.15L407.83-24.15 407.83-14.15 403.48-14.15 403.48-19.3Q401.53-19.3 399.23-17.85 396.93-16.4 394.48-13.75L394.48-13.75 394.48-3.95 399.83-3.95 399.83 0 384.28 0 384.28-3.95 389.58-3.95 389.58-19.6 384.28-19.6 384.28-23.55 394.48-23.55 394.48-17.65Q397.13-20.7 400-22.43 402.88-24.15 405.73-24.15L405.73-24.15ZM442.47-23.55L442.47-19.6 438.77-19.6 428.87 2.6Q426.77 7.25 424.15 9.58 421.52 11.9 418.02 11.9L418.02 11.9Q416.07 11.9 414.5 11.28 412.92 10.65 411.07 9.45L411.07 9.45 413.07 5.7Q415.62 7.55 418.02 7.55L418.02 7.55Q420.17 7.55 421.87 6.18 423.57 4.8 424.87 1.8L424.87 1.8 425.22 1 415.12-19.6 411.22-19.6 411.22-23.55 424.42-23.55 424.42-19.95 420.37-19.95 427.47-4.15 434.42-19.95 430.57-19.95 430.57-23.55 442.47-23.55ZM473.97-3.95L478.67-3.95 478.67 0 464.77 0 464.77-3.95 469.12-3.95 469.12-13.7Q469.12-16.45 467.75-18.03 466.37-19.6 463.82-19.6L463.82-19.6Q459.47-19.6 454.62-14.1L454.62-14.1 454.62-3.95 458.97-3.95 458.97 0 444.42 0 444.42-3.95 449.72-3.95 449.72-19.6 444.42-19.6 444.42-23.55 454.62-23.55 454.62-18Q457.42-21.1 460-22.63 462.57-24.15 465.52-24.15L465.52-24.15Q469.57-24.15 471.77-21.55 473.97-18.95 473.97-13.85L473.97-13.85 473.97-3.95Z" fill="#000000" data-fill-palette-color="primary"></path></g></svg></g></svg></g></svg></g></svg></g><g transform="matrix(1,0,0,1,404.73545319757574,0)"><svg viewBox="0 0 119.25473645638624 53.947696161616165" height="53.947696161616165" width="119.25473645638624"><g><svg xmlns="http://www.w3.org/2000/svg" xmlns:xlink="http://www.w3.org/1999/xlink" version="1.1" x="0" y="0" viewBox="9.719216539662249 31.778190703713353 80.56078346033775 36.44357279049872" enable-background="new 0 0 100 100" xml:space="preserve" height="53.947696161616165" width="119.25473645638624" class="icon-icon-0" data-fill-palette-color="accent" id="icon-0"><g fill="#636365" data-fill-palette-color="accent"><path d="M87.996 60.661c-0.036-0.015-0.065 0.122-0.118 0.363C88.028 60.655 88.068 60.476 87.996 60.661z" fill="#000000" data-fill-palette-color="accent"></path><path d="M79.26 57.215c8.964-2.982 10.971-10.862 11.02-10.472-0.105-0.167-4.436 5.574-11.797 7.809-4.64 1.357-8.944 0.619-11.515-0.074-0.223-0.57-0.441-1.18-0.657-1.8 2.892 0.067 7.099-0.597 11.074-4.162 6.582-6.777 4.734-14.695 4.958-14.372-0.171-0.099-1.369 6.99-6.873 12.367-3.193 3.054-6.936 4.423-9.544 5.069-0.459-1-0.987-2.013-1.547-3.026 2.24-0.165 5.018-0.958 7.691-3.343 5.527-5.715 3.736-12.325 3.925-12.038-0.136-0.063-1.391 5.719-5.84 10.033-2.135 2.06-4.603 3.231-6.601 3.911-2.953-4.862-7.164-9.543-13.037-12.513-16.325-8.03-32.411 2.703-37.064 11.647C8.334 55.808 10.1 62.662 9.727 62.506c0.309 0.164-0.048-6.823 5.658-14.988 5.374-7.73 19.831-15.484 33.074-8.775 6.354 3.191 10.929 8.898 13.977 14.576 2.073 5.745 6.821 12.395 12.042 13.832 5.121 2.421 10.368 0.342 11.818-2.324 1.136-1.823 1.448-3.189 1.583-3.803-0.726 1.788-4.243 8.431-12.426 4.033-3.64-1.925-5.983-4.772-7.929-9.24C70.061 57.203 74.096 58.545 79.26 57.215z" fill="#000000" data-fill-palette-color="accent"></path></g></svg></g></svg></g></svg></g><defs></defs></svg><rect width="395.52" height="40.720977619702055" fill="none" stroke="none" visibility="hidden"></rect></g></svg></g></svg>